<svg width="20" height="20" viewBox="0 0 20 20" fill="none" xmlns="http://www.w3.org/2000/svg">
<path d="M13.5 9C14.3284 9 15 8.32843 15 7.5C15 6.67157 14.3284 6 13.5 6C12.6716 6 12 6.67157 12 7.5C12 8.32843 12.6716 9 13.5 9Z" fill="currentColor"/>
<path d="M6.5 9C7.32843 9 8 8.32843 8 7.5C8 6.67157 7.32843 6 6.5 6C5.67157 6 5 6.67157 5 7.5C5 8.32843 5.67157 9 6.5 9Z" fill="currentColor"/>
<path d="M9.99 0C4.47 0 0 4.48 0 10C0 15.52 4.47 20 9.99 20C15.52 20 20 15.52 20 10C20 4.48 15.52 0 9.99 0ZM10 18C5.58 18 2 14.42 2 10C2 5.58 5.58 2 10 2C14.42 2 18 5.58 18 10C18 14.42 14.42 18 10 18ZM10 14.5C10.73 14.5 11.39 14.69 11.97 15.03C12.09 14.89 12.83 14.05 12.98 13.89C12.13 13.33 11.11 13 10 13C8.89 13 7.87 13.33 7.01 13.88C7.98 14.97 7.02 13.9 8.02 15.02C8.61 14.69 9.27 14.5 10 14.5Z" fill="currentColor"/>
</svg>
