<svg width="52" height="52" viewBox="0 0 52 52" fill="none" xmlns="http://www.w3.org/2000/svg">
<rect x="0.75" y="1.5" width="49.7129" height="49.7129" stroke="white" stroke-width="1.5"/>
<path d="M9.81152 9.97949H41.4015V42.1515H9.81152V9.97949Z" stroke="white"/>
<path d="M38.6867 37.6229V39.3872H12.5283V37.6229H38.6867ZM15.2442 26.5656H16.96V35.2407H15.2442V26.5656ZM22.0337 26.5656H23.7496V35.2407H22.0337V26.5656ZM27.4654 26.5656H29.1812V35.2407H27.4654V26.5656ZM34.255 26.5656H35.9708V35.2407H34.255V26.5656ZM12.5283 19.4613L25.6075 12.8049L38.6867 19.4613V24.1834H12.5283V19.4613ZM25.6075 21.0369C26.1031 21.0369 26.5766 20.8364 26.9244 20.4825C27.2718 20.1288 27.4654 19.6511 27.4654 19.1547C27.4654 18.6584 27.2718 18.1806 26.9244 17.827C26.5766 17.4731 26.1031 17.2726 25.6075 17.2726C25.1119 17.2726 24.6384 17.4731 24.2906 17.827C23.9432 18.1806 23.7496 18.6584 23.7496 19.1547C23.7496 19.6511 23.9432 20.1288 24.2906 20.4825C24.6384 20.8364 25.1119 21.0369 25.6075 21.0369Z" fill="white" stroke="white"/>
</svg>
