<svg width="300" height="65" viewBox="0 0 300 65" fill="none" xmlns="http://www.w3.org/2000/svg">
<path d="M32.416 49.2655C30.6333 50.456 27.8983 51.3778 24.8031 51.4389C21.7629 51.5182 19.1255 50.5781 17.3673 48.9175C15.0108 46.677 13.802 42.8126 13.802 37.483C13.802 32.2877 15.2855 23.521 24.9985 22.8434C26.3171 22.7457 29.8519 22.471 32.416 22.4038V49.2655ZM32.416 0.999929V11.7324H25.554C5.23682 11.7324 1 26.9093 1 37.8432C1 45.8468 3.44197 52.7942 7.82531 57.4095C11.6043 61.3472 16.6653 63.4534 22.4833 63.4534C26.3782 63.4534 29.6627 62.7269 32.416 61.2739L32.4892 62.3728H45.8957V0.999929H32.416Z" fill="white"/>
<path d="M68.8317 29.8579C70.1992 25.0045 73.5569 21.891 78.9354 21.891C83.9414 21.891 87.3602 25.4013 87.7692 29.8579H68.8317ZM100.938 30.0838C100.425 24.3513 98.3185 19.4979 94.8876 16.1218C91.0476 12.3307 85.663 10.3954 78.9354 10.3954C71.176 10.3954 64.7902 13.2708 60.4435 18.6981C56.573 23.5149 54.4424 30.2548 54.4424 37.6906C54.4424 50.1019 61.4631 63.4229 81.1392 63.4229C88.6788 63.4229 96.0414 61.0847 100.266 58.9785V46.5488C97.9156 47.8492 90.7179 51.738 80.8889 51.561C73.679 51.4389 69.7963 47.5622 68.5814 40.7308H101.066L101.084 40.2302C101.157 35.6515 101.066 31.7871 100.938 30.0838Z" fill="white"/>
<path d="M136.273 10.5175C131.914 10.5175 127.103 12.1536 125.248 12.8435L125.186 11.7324H111.762V62.3728H125.248V24.4429C128.16 22.6236 132.671 21.8605 136.322 22.7152C139.936 23.5638 141.713 25.8531 141.713 32.4098V62.3728H155.162V30.4196C155.162 17.0315 148.996 10.5175 136.273 10.5175Z" fill="white"/>
<path d="M285.526 11.7204V49.6503C282.657 51.4879 278.115 52.2388 274.464 51.4024C270.856 50.5539 269.086 48.2767 269.086 41.6834V11.7204H255.612V43.6858C255.612 57.0678 261.797 63.5757 274.501 63.5757C278.866 63.5757 283.695 61.9579 285.526 61.2497L285.606 62.3608H299V11.7204H285.526Z" fill="white"/>
<path d="M180.021 1.00017H166.554V44.9496C166.554 50.9934 167.604 55.2303 169.844 58.2217C172.482 61.7625 176.792 63.4658 183 63.4658C187.988 63.4658 192.793 62.373 195.601 61.4878V49.3634C193.861 49.803 188.525 50.9507 185.436 50.9507C183.477 50.9507 182.097 50.5417 181.248 49.6931C180.021 48.4416 180.021 46.311 180.021 44.2597V22.868C185.302 22.868 191.914 23.2343 195.601 23.6311V11.7326H180.021V1.00017Z" fill="white"/>
<path d="M229.721 30.7249C226.559 30.151 222.817 29.4856 220.655 28.2951C219.605 27.7212 219.05 26.9093 219.062 26.0119C219.099 25.1327 219.703 24.2842 220.6 23.8446C222.56 22.7579 226.119 22.2329 231.528 23.2219C236.724 24.156 242.487 26.1584 244.269 26.9093V14.6872C238.042 11.5981 232.499 10.3954 226.26 10.487C220.466 10.5969 215.46 12.1109 211.773 14.852C207.89 17.7885 205.704 21.9704 205.485 26.9703C205.088 35.3768 210.362 40.4073 222.517 42.7699C225.045 43.2705 228.726 44.0214 230.289 44.6746C231.864 45.2973 232.798 46.3352 232.798 47.5134C232.81 48.6428 232.011 49.7051 230.747 50.2423C228.47 51.1947 224.764 51.0543 222.408 50.804C215.448 50.1019 208.794 47.6416 206.382 46.5733V59.125C210.497 61.2129 216.986 63.6243 224.685 63.5144C233.5 63.3374 244.44 60.7123 246.412 49.0885C247.169 44.7723 246.4 40.8713 244.19 37.7944C241.492 34.0765 237.334 32.1534 229.721 30.7249Z" fill="white"/>
</svg>
